<mxfile host="app.diagrams.net" modified="2024-05-13T23:23:04.937Z" agent="Mozilla/5.0 (Windows NT 10.0; Win64; x64) AppleWebKit/537.36 (KHTML, like Gecko) Chrome/124.0.0.0 Safari/537.36" etag="jH5XTrjLZa293-Z_s18B" version="24.0.7" type="device">
  <diagram name="Página-1" id="IxqRUHu1oHd2gP29kNT8">
    <mxGraphModel dx="1709" dy="893" grid="1" gridSize="10" guides="1" tooltips="1" connect="1" arrows="1" fold="1" page="1" pageScale="1" pageWidth="827" pageHeight="1169" math="0" shadow="0">
      <root>
        <mxCell id="0" />
        <mxCell id="1" parent="0" />
        <mxCell id="KWd-h41TIWybSfYZVvf4-3" value="" style="edgeStyle=orthogonalEdgeStyle;rounded=0;orthogonalLoop=1;jettySize=auto;html=1;" edge="1" parent="1" source="KWd-h41TIWybSfYZVvf4-1" target="KWd-h41TIWybSfYZVvf4-2">
          <mxGeometry relative="1" as="geometry" />
        </mxCell>
        <mxCell id="KWd-h41TIWybSfYZVvf4-1" value="API Gateway" style="outlineConnect=0;dashed=0;verticalLabelPosition=bottom;verticalAlign=top;align=center;html=1;shape=mxgraph.aws3.api_gateway;fillColor=#D9A741;gradientColor=none;" vertex="1" parent="1">
          <mxGeometry x="130" y="254" width="76.5" height="93" as="geometry" />
        </mxCell>
        <mxCell id="KWd-h41TIWybSfYZVvf4-5" value="" style="edgeStyle=orthogonalEdgeStyle;rounded=0;orthogonalLoop=1;jettySize=auto;html=1;" edge="1" parent="1" source="KWd-h41TIWybSfYZVvf4-2" target="KWd-h41TIWybSfYZVvf4-4">
          <mxGeometry relative="1" as="geometry" />
        </mxCell>
        <mxCell id="KWd-h41TIWybSfYZVvf4-2" value="Lambda Salvar Dados" style="outlineConnect=0;dashed=0;verticalLabelPosition=bottom;verticalAlign=top;align=center;html=1;shape=mxgraph.aws3.lambda_function;fillColor=#F58534;gradientColor=none;" vertex="1" parent="1">
          <mxGeometry x="300" y="264.5" width="69" height="72" as="geometry" />
        </mxCell>
        <mxCell id="KWd-h41TIWybSfYZVvf4-4" value="Repositório de dados" style="outlineConnect=0;dashed=0;verticalLabelPosition=bottom;verticalAlign=top;align=center;html=1;shape=mxgraph.aws3.rds;fillColor=#2E73B8;gradientColor=none;" vertex="1" parent="1">
          <mxGeometry x="460" y="260" width="72" height="81" as="geometry" />
        </mxCell>
        <mxCell id="KWd-h41TIWybSfYZVvf4-12" value="" style="edgeStyle=orthogonalEdgeStyle;rounded=0;orthogonalLoop=1;jettySize=auto;html=1;" edge="1" parent="1" source="KWd-h41TIWybSfYZVvf4-7" target="KWd-h41TIWybSfYZVvf4-4">
          <mxGeometry relative="1" as="geometry" />
        </mxCell>
        <mxCell id="KWd-h41TIWybSfYZVvf4-7" value="Lambda de atualização de dados" style="outlineConnect=0;dashed=0;verticalLabelPosition=bottom;verticalAlign=top;align=center;html=1;shape=mxgraph.aws3.lambda_function;fillColor=#F58534;gradientColor=none;" vertex="1" parent="1">
          <mxGeometry x="463" y="111" width="69" height="72" as="geometry" />
        </mxCell>
        <mxCell id="KWd-h41TIWybSfYZVvf4-9" value="Lambda de Geração do modelo" style="outlineConnect=0;dashed=0;verticalLabelPosition=bottom;verticalAlign=top;align=center;html=1;shape=mxgraph.aws3.lambda_function;fillColor=#F58534;gradientColor=none;" vertex="1" parent="1">
          <mxGeometry x="470" y="438.25" width="69" height="72" as="geometry" />
        </mxCell>
        <mxCell id="KWd-h41TIWybSfYZVvf4-15" value="" style="edgeStyle=orthogonalEdgeStyle;rounded=0;orthogonalLoop=1;jettySize=auto;html=1;" edge="1" parent="1" source="KWd-h41TIWybSfYZVvf4-14" target="KWd-h41TIWybSfYZVvf4-7">
          <mxGeometry relative="1" as="geometry" />
        </mxCell>
        <mxCell id="KWd-h41TIWybSfYZVvf4-14" value="Worker pra ativar a atualização" style="outlineConnect=0;dashed=0;verticalLabelPosition=bottom;verticalAlign=top;align=center;html=1;shape=mxgraph.aws3.worker;fillColor=#D9A741;gradientColor=none;" vertex="1" parent="1">
          <mxGeometry x="260" y="115.5" width="60" height="63" as="geometry" />
        </mxCell>
        <mxCell id="KWd-h41TIWybSfYZVvf4-17" value="" style="edgeStyle=orthogonalEdgeStyle;rounded=0;orthogonalLoop=1;jettySize=auto;html=1;" edge="1" parent="1" source="KWd-h41TIWybSfYZVvf4-16" target="KWd-h41TIWybSfYZVvf4-9">
          <mxGeometry relative="1" as="geometry" />
        </mxCell>
        <mxCell id="KWd-h41TIWybSfYZVvf4-18" style="edgeStyle=orthogonalEdgeStyle;rounded=0;orthogonalLoop=1;jettySize=auto;html=1;" edge="1" parent="1" source="KWd-h41TIWybSfYZVvf4-16" target="KWd-h41TIWybSfYZVvf4-4">
          <mxGeometry relative="1" as="geometry">
            <Array as="points">
              <mxPoint x="335" y="393" />
              <mxPoint x="430" y="393" />
              <mxPoint x="430" y="301" />
            </Array>
          </mxGeometry>
        </mxCell>
        <mxCell id="KWd-h41TIWybSfYZVvf4-20" value="" style="edgeStyle=orthogonalEdgeStyle;rounded=0;orthogonalLoop=1;jettySize=auto;html=1;" edge="1" parent="1" source="KWd-h41TIWybSfYZVvf4-16" target="KWd-h41TIWybSfYZVvf4-19">
          <mxGeometry relative="1" as="geometry" />
        </mxCell>
        <mxCell id="KWd-h41TIWybSfYZVvf4-16" value="Aplicação Streamlit" style="shape=mxgraph.cisco.misc.front_end_processor;html=1;pointerEvents=1;dashed=0;fillColor=#036897;strokeColor=#ffffff;strokeWidth=2;verticalLabelPosition=bottom;verticalAlign=top;align=center;outlineConnect=0;" vertex="1" parent="1">
          <mxGeometry x="293.5" y="433.5" width="82" height="81.5" as="geometry" />
        </mxCell>
        <mxCell id="KWd-h41TIWybSfYZVvf4-19" value="Cloudfront" style="outlineConnect=0;dashed=0;verticalLabelPosition=bottom;verticalAlign=top;align=center;html=1;shape=mxgraph.aws3.cloudfront;fillColor=#F58536;gradientColor=none;" vertex="1" parent="1">
          <mxGeometry x="130" y="427.75" width="76.5" height="93" as="geometry" />
        </mxCell>
        <mxCell id="KWd-h41TIWybSfYZVvf4-21" value="&lt;font style=&quot;font-size: 18px;&quot;&gt;&lt;b&gt;Arquitetura Cloud - Aplicação de previsão de preço de petróleo bruto&lt;/b&gt;&lt;/font&gt;" style="text;html=1;align=center;verticalAlign=middle;resizable=0;points=[];autosize=1;strokeColor=none;fillColor=none;" vertex="1" parent="1">
          <mxGeometry x="70" y="40" width="610" height="40" as="geometry" />
        </mxCell>
      </root>
    </mxGraphModel>
  </diagram>
</mxfile>
